# xmcd CD database file
#
# Track frame offsets:
#	150
#	32732
#	50005
#	64025
#	85087
#	103140
#	122737
#	140362
#	161850
#	183185
#	200425
#	219692
#	240355
#
# Disc length: 3456 seconds
#
# Revision: 4
# Processed by: cddbd v1.5.2PL0 Copyright (c) Steve Scherf et al.
# Submitted via: CDex 1.70beta2
#
DISCID=b70d7e0d
DTITLE=松尾清憲 - NO THANK YOU
DYEAR=2000
DGENRE=Pop
TTITLE0=穴の中で僕たち
TTITLE1=クルエル ワールド -Cruel World-
TTITLE2=愚かな女 -Stupid Girls-
TTITLE3=ゲット ユー ダウン ブルー -Get You Down Blue-
TTITLE4=サニー シャイニー モーニング -Sunny Shiny Morning-
TTITLE5=渚にて
TTITLE6=OH! キャロライン -Oh! Caroline-
TTITLE7=テレビジョンの誘惑 -TV's Temptation-
TTITLE8=Futatsunokataomoi
TTITLE9=サニー シャイニー モーニング [45prm]
TTITLE10=ふたつの片想い [45rpm]
TTITLE11=30-0 -Thirty Love-
TTITLE12=愛しのロージー -Rosie- [live]
EXTD=YEAR: 2000
EXTT0=
EXTT1=
EXTT2=
EXTT3=
EXTT4=
EXTT5=
EXTT6=
EXTT7=
EXTT8=
EXTT9=
EXTT10=
EXTT11=
EXTT12=
PLAYORDER=
